M48
INCH,TZ
T1C0.0315
T2C0.1260
%
G90
G05
T1
X46299Y-23425
X46299Y-24055
X46299Y-27795
X46299Y-28425
X46299Y-32165
X46299Y-32795
X46299Y-36535
X46299Y-37165
X46299Y-40906
X46299Y-41535
X46299Y-45276
X46299Y-45906
X46299Y-49646
X46299Y-50276
X46299Y-54016
X46299Y-54646
X46772Y-23425
X46772Y-24055
X46772Y-27795
X46772Y-28425
X46772Y-32165
X46772Y-32795
X46772Y-36535
X46772Y-37165
X46772Y-40906
X46772Y-41535
X46772Y-45276
X46772Y-45906
X46772Y-49646
X46772Y-50276
X46772Y-54016
X46772Y-54646
X47244Y-23425
X47244Y-24055
X47244Y-27795
X47244Y-28425
X47244Y-32165
X47244Y-32795
X47244Y-36535
X47244Y-37165
X47244Y-40906
X47244Y-41535
X47244Y-45276
X47244Y-45906
X47244Y-49646
X47244Y-50276
X47244Y-54016
X47244Y-54646
X47717Y-23425
X47717Y-24055
X47717Y-27795
X47717Y-28425
X47717Y-32165
X47717Y-32795
X47717Y-36535
X47717Y-37165
X47717Y-40906
X47717Y-41535
X47717Y-45276
X47717Y-45906
X47717Y-49646
X47717Y-50276
X47717Y-54016
X47717Y-54646
X48189Y-23425
X48189Y-24055
X48189Y-27795
X48189Y-28425
X48189Y-32165
X48189Y-32795
X48189Y-36535
X48189Y-37165
X48189Y-40906
X48189Y-41535
X48189Y-45276
X48189Y-45906
X48189Y-49646
X48189Y-50276
X48189Y-54016
X48189Y-54646
X69921Y-23425
X69921Y-24055
X69921Y-27795
X69921Y-28425
X69921Y-32165
X69921Y-32795
X69921Y-36535
X69921Y-37165
X69921Y-40906
X69921Y-41535
X69921Y-45276
X69921Y-45906
X69921Y-49646
X69921Y-50276
X69921Y-54016
X69921Y-54646
X70394Y-23425
X70394Y-24055
X70394Y-27795
X70394Y-28425
X70394Y-32165
X70394Y-32795
X70394Y-36535
X70394Y-37165
X70394Y-40906
X70394Y-41535
X70394Y-45276
X70394Y-45906
X70394Y-49646
X70394Y-50276
X70394Y-54016
X70394Y-54646
X70866Y-23425
X70866Y-24055
X70866Y-27795
X70866Y-28425
X70866Y-32165
X70866Y-32795
X70866Y-36535
X70866Y-37165
X70866Y-40906
X70866Y-41535
X70866Y-45276
X70866Y-45906
X70866Y-49646
X70866Y-50276
X70866Y-54016
X70866Y-54646
X71339Y-23425
X71339Y-24055
X71339Y-27795
X71339Y-28425
X71339Y-32165
X71339Y-32795
X71339Y-36535
X71339Y-37165
X71339Y-40906
X71339Y-41535
X71339Y-45276
X71339Y-45906
X71339Y-49646
X71339Y-50276
X71339Y-54016
X71339Y-54646
X71811Y-23425
X71811Y-24055
X71811Y-27795
X71811Y-28425
X71811Y-32165
X71811Y-32795
X71811Y-36535
X71811Y-37165
X71811Y-40906
X71811Y-41535
X71811Y-45276
X71811Y-45906
X71811Y-49646
X71811Y-50276
X71811Y-54016
X71811Y-54646
T2
X47244Y-21555
X47244Y-25925
X47244Y-30295
X47244Y-34665
X47244Y-39035
X47244Y-43406
X47244Y-47776
X47244Y-52146
X47244Y-56516
X70866Y-21555
X70866Y-25925
X70866Y-30295
X70866Y-34665
X70866Y-39035
X70866Y-43406
X70866Y-47776
X70866Y-52146
X70866Y-56516
T0
M30
