G04 #@! TF.GenerationSoftware,KiCad,Pcbnew,(6.0.0)*
G04 #@! TF.CreationDate,2022-02-10T10:23:11+01:00*
G04 #@! TF.ProjectId,IKEA_Tertial_mod_v3.1,494b4541-5f54-4657-9274-69616c5f6d6f,rev?*
G04 #@! TF.SameCoordinates,Original*
G04 #@! TF.FileFunction,Profile,NP*
%FSLAX46Y46*%
G04 Gerber Fmt 4.6, Leading zero omitted, Abs format (unit mm)*
G04 Created by KiCad (PCBNEW (6.0.0)) date 2022-02-10 10:23:11*
%MOMM*%
%LPD*%
G01*
G04 APERTURE LIST*
G04 #@! TA.AperFunction,Profile*
%ADD10C,0.100000*%
G04 #@! TD*
G04 APERTURE END LIST*
D10*
X101000000Y-137199999D02*
X116200000Y-137200000D01*
X123800000Y-137200000D02*
X176200000Y-137200000D01*
X183800000Y-137200000D02*
X199000000Y-137199999D01*
X183800000Y-138800000D02*
X199000000Y-138800000D01*
X123800000Y-138800000D02*
X176200000Y-138800000D01*
X183800000Y-127700001D02*
X199000000Y-127700001D01*
X101000000Y-138800000D02*
X116200000Y-138800000D01*
X101000000Y-126100000D02*
X116200000Y-126100001D01*
X183800000Y-126100001D02*
X199000000Y-126100000D01*
X123800000Y-126100001D02*
X176200000Y-126100001D01*
X101000000Y-127700001D02*
X116200000Y-127700001D01*
X123800000Y-127700001D02*
X176200000Y-127700001D01*
X123800000Y-94400002D02*
X176200000Y-94400002D01*
X123800000Y-92800002D02*
X176200000Y-92800002D01*
X101000000Y-94400002D02*
X116200000Y-94400002D01*
X183800000Y-92800002D02*
X199000000Y-92800001D01*
X183800000Y-94400002D02*
X199000000Y-94400002D01*
X101000000Y-92800001D02*
X116200000Y-92800002D01*
X101000000Y-105500003D02*
X116200000Y-105500003D01*
X183800000Y-103900003D02*
X199000000Y-103900002D01*
X123800000Y-105500003D02*
X176200000Y-105500003D01*
X183800000Y-105500003D02*
X199000000Y-105500003D01*
X123800000Y-103900003D02*
X176200000Y-103900003D01*
X101000000Y-103900002D02*
X116200000Y-103900003D01*
X101000000Y-116600002D02*
X116200000Y-116600002D01*
X123800000Y-116600002D02*
X176200000Y-116600002D01*
X123800000Y-115000002D02*
X176200000Y-115000002D01*
X183800000Y-115000002D02*
X199000000Y-115000001D01*
X183800000Y-116600002D02*
X199000000Y-116600002D01*
X101000000Y-115000001D02*
X116200000Y-115000002D01*
X123800000Y-83300001D02*
X176200000Y-83300001D01*
X123800000Y-81700001D02*
X176200000Y-81700001D01*
X101000000Y-83300001D02*
X116200000Y-83300001D01*
X183800000Y-81700001D02*
X199000000Y-81700000D01*
X183800000Y-83300001D02*
X199000000Y-83300001D01*
X101000000Y-81700000D02*
X116200000Y-81700001D01*
X123800000Y-72200002D02*
X176200000Y-72200002D01*
X123800000Y-70600002D02*
X176200000Y-70600002D01*
X101000000Y-72200002D02*
X116200000Y-72200002D01*
X183800000Y-70600002D02*
X199000000Y-70600001D01*
X183800000Y-72200002D02*
X199000000Y-72200002D01*
X101000000Y-70600001D02*
X116200000Y-70600002D01*
X199000000Y-126100000D02*
G75*
G03*
X200000000Y-125100000I1J999999D01*
G01*
X200000000Y-73200000D02*
X200000000Y-80700000D01*
X199000000Y-92800001D02*
G75*
G03*
X200000000Y-91800001I1J999999D01*
G01*
X101000000Y-94400000D02*
G75*
G03*
X100000000Y-95400000I-1J-999999D01*
G01*
X101000000Y-138799999D02*
G75*
G03*
X100000000Y-139799999I-1J-999999D01*
G01*
X100000000Y-58500000D02*
X100000000Y-51000000D01*
X200000000Y-62100001D02*
X200000000Y-69600001D01*
X100000000Y-91800001D02*
X100000000Y-84300001D01*
X200000000Y-128700001D02*
X200000000Y-136200001D01*
X101000000Y-72200000D02*
G75*
G03*
X100000000Y-73200000I-1J-999999D01*
G01*
X101000000Y-50000000D02*
X199000000Y-50000000D01*
X100000000Y-147299999D02*
G75*
G03*
X101000000Y-148299999I999999J-1D01*
G01*
X123800000Y-61100001D02*
X176200000Y-61100001D01*
X101000000Y-148299999D02*
X199000000Y-148299999D01*
X200000000Y-106500001D02*
X200000000Y-114000001D01*
X101000000Y-61100001D02*
G75*
G03*
X100000000Y-62100001I-1J-999999D01*
G01*
X200000000Y-128700001D02*
G75*
G03*
X199000000Y-127700001I-999999J1D01*
G01*
X100000000Y-125100000D02*
G75*
G03*
X101000000Y-126100000I999999J-1D01*
G01*
X100000000Y-58500000D02*
G75*
G03*
X101000000Y-59500000I999999J-1D01*
G01*
X200000000Y-84300001D02*
G75*
G03*
X199000000Y-83300001I-999999J1D01*
G01*
X200000000Y-139799999D02*
X200000000Y-147299999D01*
X199000000Y-70600001D02*
G75*
G03*
X200000000Y-69600001I1J999999D01*
G01*
X100000000Y-69600001D02*
X100000000Y-62100001D01*
X101000000Y-83300001D02*
G75*
G03*
X100000000Y-84300001I-1J-999999D01*
G01*
X100000000Y-80700000D02*
G75*
G03*
X101000000Y-81700000I999999J-1D01*
G01*
X101000000Y-116600000D02*
G75*
G03*
X100000000Y-117600000I-1J-999999D01*
G01*
X100000000Y-80700000D02*
X100000000Y-73200000D01*
X200000000Y-51000000D02*
G75*
G03*
X199000000Y-50000000I-999999J1D01*
G01*
X199000000Y-81700000D02*
G75*
G03*
X200000000Y-80700000I1J999999D01*
G01*
X123800000Y-59500001D02*
X176200000Y-59500001D01*
X200000000Y-73200000D02*
G75*
G03*
X199000000Y-72200000I-999999J1D01*
G01*
X199000000Y-148299999D02*
G75*
G03*
X200000000Y-147299999I1J999999D01*
G01*
X101000000Y-50000000D02*
G75*
G03*
X100000000Y-51000000I-1J-999999D01*
G01*
X101000000Y-127700001D02*
G75*
G03*
X100000000Y-128700001I-1J-999999D01*
G01*
X100000000Y-136200001D02*
G75*
G03*
X101000000Y-137200001I999999J-1D01*
G01*
X100000000Y-69600001D02*
G75*
G03*
X101000000Y-70600001I999999J-1D01*
G01*
X200000000Y-117600000D02*
X200000000Y-125100000D01*
X200000000Y-95400000D02*
G75*
G03*
X199000000Y-94400000I-999999J1D01*
G01*
X100000000Y-102900000D02*
X100000000Y-95400000D01*
X101000000Y-105500001D02*
G75*
G03*
X100000000Y-106500001I-1J-999999D01*
G01*
X200000000Y-106500001D02*
G75*
G03*
X199000000Y-105500001I-999999J1D01*
G01*
X101000000Y-61100001D02*
X116200000Y-61100001D01*
X100000000Y-91800001D02*
G75*
G03*
X101000000Y-92800001I999999J-1D01*
G01*
X100000000Y-147299999D02*
X100000000Y-139799999D01*
X200000000Y-117600000D02*
G75*
G03*
X199000000Y-116600000I-999999J1D01*
G01*
X100000000Y-114000001D02*
G75*
G03*
X101000000Y-115000001I999999J-1D01*
G01*
X199000000Y-59500000D02*
G75*
G03*
X200000000Y-58500000I1J999999D01*
G01*
X100000000Y-102900000D02*
G75*
G03*
X101000000Y-103900000I999999J-1D01*
G01*
X183800000Y-59500001D02*
X199000000Y-59500000D01*
X200000000Y-84300001D02*
X200000000Y-91800001D01*
X100000000Y-114000001D02*
X100000000Y-106500001D01*
X200000000Y-95400000D02*
X200000000Y-102900000D01*
X200000000Y-139799999D02*
G75*
G03*
X199000000Y-138799999I-999999J1D01*
G01*
X100000000Y-125100000D02*
X100000000Y-117600000D01*
X199000000Y-103900000D02*
G75*
G03*
X200000000Y-102900000I1J999999D01*
G01*
X183800000Y-61100001D02*
X199000000Y-61100001D01*
X199000000Y-137200001D02*
G75*
G03*
X200000000Y-136200001I1J999999D01*
G01*
X199000000Y-115000001D02*
G75*
G03*
X200000000Y-114000001I1J999999D01*
G01*
X101000000Y-59500000D02*
X116200000Y-59500001D01*
X200000000Y-51000000D02*
X200000000Y-58500000D01*
X100000000Y-136200001D02*
X100000000Y-128700001D01*
X200000000Y-62100001D02*
G75*
G03*
X199000000Y-61100001I-999999J1D01*
G01*
X116200000Y-116600000D02*
G75*
G03*
X116200000Y-115000000I0J800000D01*
G01*
X123800000Y-115000000D02*
G75*
G03*
X123800000Y-116600000I0J-800000D01*
G01*
X116200000Y-83300001D02*
G75*
G03*
X116200000Y-81700001I0J800000D01*
G01*
X123800000Y-81700001D02*
G75*
G03*
X123800000Y-83300001I0J-800000D01*
G01*
X116200000Y-138799999D02*
G75*
G03*
X116200000Y-137199999I0J800000D01*
G01*
X123800000Y-137199999D02*
G75*
G03*
X123800000Y-138799999I0J-800000D01*
G01*
X116200000Y-61100001D02*
G75*
G03*
X116200000Y-59500001I0J800000D01*
G01*
X123800000Y-59500001D02*
G75*
G03*
X123800000Y-61100001I0J-800000D01*
G01*
X116200000Y-72200000D02*
G75*
G03*
X116200000Y-70600000I0J800000D01*
G01*
X123800000Y-70600000D02*
G75*
G03*
X123800000Y-72200000I0J-800000D01*
G01*
X116200000Y-127700001D02*
G75*
G03*
X116200000Y-126100001I0J800000D01*
G01*
X123800000Y-126100001D02*
G75*
G03*
X123800000Y-127700001I0J-800000D01*
G01*
X116200000Y-105500001D02*
G75*
G03*
X116200000Y-103900001I0J800000D01*
G01*
X123800000Y-103900001D02*
G75*
G03*
X123800000Y-105500001I0J-800000D01*
G01*
X116200000Y-94400000D02*
G75*
G03*
X116200000Y-92800000I0J800000D01*
G01*
X123800000Y-92800000D02*
G75*
G03*
X123800000Y-94400000I0J-800000D01*
G01*
X176200000Y-61100001D02*
G75*
G03*
X176200000Y-59500001I0J800000D01*
G01*
X183800000Y-59500001D02*
G75*
G03*
X183800000Y-61100001I0J-800000D01*
G01*
X176200000Y-116600000D02*
G75*
G03*
X176200000Y-115000000I0J800000D01*
G01*
X183800000Y-115000000D02*
G75*
G03*
X183800000Y-116600000I0J-800000D01*
G01*
X176200000Y-105500001D02*
G75*
G03*
X176200000Y-103900001I0J800000D01*
G01*
X183800000Y-103900001D02*
G75*
G03*
X183800000Y-105500001I0J-800000D01*
G01*
X176200000Y-94400000D02*
G75*
G03*
X176200000Y-92800000I0J800000D01*
G01*
X183800000Y-92800000D02*
G75*
G03*
X183800000Y-94400000I0J-800000D01*
G01*
X176200000Y-127700001D02*
G75*
G03*
X176200000Y-126100001I0J800000D01*
G01*
X183800000Y-126100001D02*
G75*
G03*
X183800000Y-127700001I0J-800000D01*
G01*
X176200000Y-72200000D02*
G75*
G03*
X176200000Y-70600000I0J800000D01*
G01*
X183800000Y-70600000D02*
G75*
G03*
X183800000Y-72200000I0J-800000D01*
G01*
X176200000Y-83300001D02*
G75*
G03*
X176200000Y-81700001I0J800000D01*
G01*
X183800000Y-81700001D02*
G75*
G03*
X183800000Y-83300001I0J-800000D01*
G01*
X176200000Y-138799999D02*
G75*
G03*
X176200000Y-137199999I0J800000D01*
G01*
X183800000Y-137199999D02*
G75*
G03*
X183800000Y-138799999I0J-800000D01*
G01*
M02*
