G04 #@! TF.GenerationSoftware,KiCad,Pcbnew,(6.0.0)*
G04 #@! TF.CreationDate,2022-02-10T10:23:11+01:00*
G04 #@! TF.ProjectId,IKEA_Tertial_mod_v3.1,494b4541-5f54-4657-9274-69616c5f6d6f,rev?*
G04 #@! TF.SameCoordinates,Original*
G04 #@! TF.FileFunction,Soldermask,Top*
G04 #@! TF.FilePolarity,Negative*
%FSLAX46Y46*%
G04 Gerber Fmt 4.6, Leading zero omitted, Abs format (unit mm)*
G04 Created by KiCad (PCBNEW (6.0.0)) date 2022-02-10 10:23:11*
%MOMM*%
%LPD*%
G01*
G04 APERTURE LIST*
G04 Aperture macros list*
%AMRoundRect*
0 Rectangle with rounded corners*
0 $1 Rounding radius*
0 $2 $3 $4 $5 $6 $7 $8 $9 X,Y pos of 4 corners*
0 Add a 4 corners polygon primitive as box body*
4,1,4,$2,$3,$4,$5,$6,$7,$8,$9,$2,$3,0*
0 Add four circle primitives for the rounded corners*
1,1,$1+$1,$2,$3*
1,1,$1+$1,$4,$5*
1,1,$1+$1,$6,$7*
1,1,$1+$1,$8,$9*
0 Add four rect primitives between the rounded corners*
20,1,$1+$1,$2,$3,$4,$5,0*
20,1,$1+$1,$4,$5,$6,$7,0*
20,1,$1+$1,$6,$7,$8,$9,0*
20,1,$1+$1,$8,$9,$2,$3,0*%
%AMFreePoly0*
4,1,9,0.300000,0.250000,0.600000,0.250000,0.600000,-0.250000,0.300000,-0.250000,0.300000,-1.200000,-0.300000,-1.200000,-0.300000,1.200000,0.300000,1.200000,0.300000,0.250000,0.300000,0.250000,$1*%
G04 Aperture macros list end*
%ADD10C,0.800000*%
%ADD11R,1.600000X2.400000*%
%ADD12FreePoly0,180.000000*%
%ADD13RoundRect,0.250000X-0.312500X-0.625000X0.312500X-0.625000X0.312500X0.625000X-0.312500X0.625000X0*%
%ADD14C,3.200000*%
%ADD15RoundRect,0.350000X1.400000X-3.650000X1.400000X3.650000X-1.400000X3.650000X-1.400000X-3.650000X0*%
G04 APERTURE END LIST*
D10*
X118800000Y-116600000D03*
X117600000Y-116600000D03*
X120000000Y-116600000D03*
X121200000Y-116600000D03*
X120000000Y-115000000D03*
X118800000Y-115000000D03*
X122400000Y-116600000D03*
X122400000Y-115000000D03*
X121200000Y-115000000D03*
X117600000Y-115000000D03*
X118800000Y-83300001D03*
X117600000Y-83300001D03*
X120000000Y-83300001D03*
X121200000Y-83300001D03*
X120000000Y-81700001D03*
X118800000Y-81700001D03*
X122400000Y-83300001D03*
X122400000Y-81700001D03*
X121200000Y-81700001D03*
X117600000Y-81700001D03*
X118800000Y-138799999D03*
X117600000Y-138799999D03*
X120000000Y-138799999D03*
X121200000Y-138799999D03*
X120000000Y-137199999D03*
X118800000Y-137199999D03*
X122400000Y-138799999D03*
X122400000Y-137199999D03*
X121200000Y-137199999D03*
X117600000Y-137199999D03*
X118800000Y-61100001D03*
X117600000Y-61100001D03*
X120000000Y-61100001D03*
X121200000Y-61100001D03*
X120000000Y-59500001D03*
X118800000Y-59500001D03*
X122400000Y-61100001D03*
X122400000Y-59500001D03*
X121200000Y-59500001D03*
X117600000Y-59500001D03*
X118800000Y-72200000D03*
X117600000Y-72200000D03*
X120000000Y-72200000D03*
X121200000Y-72200000D03*
X120000000Y-70600000D03*
X118800000Y-70600000D03*
X122400000Y-72200000D03*
X122400000Y-70600000D03*
X121200000Y-70600000D03*
X117600000Y-70600000D03*
X118800000Y-127700001D03*
X117600000Y-127700001D03*
X120000000Y-127700001D03*
X121200000Y-127700001D03*
X120000000Y-126100001D03*
X118800000Y-126100001D03*
X122400000Y-127700001D03*
X122400000Y-126100001D03*
X121200000Y-126100001D03*
X117600000Y-126100001D03*
X118800000Y-105500001D03*
X117600000Y-105500001D03*
X120000000Y-105500001D03*
X121200000Y-105500001D03*
X120000000Y-103900001D03*
X118800000Y-103900001D03*
X122400000Y-105500001D03*
X122400000Y-103900001D03*
X121200000Y-103900001D03*
X117600000Y-103900001D03*
X118800000Y-94400000D03*
X117600000Y-94400000D03*
X120000000Y-94400000D03*
X121200000Y-94400000D03*
X120000000Y-92800000D03*
X118800000Y-92800000D03*
X122400000Y-94400000D03*
X122400000Y-92800000D03*
X121200000Y-92800000D03*
X117600000Y-92800000D03*
X178800000Y-61100001D03*
X177600000Y-61100001D03*
X180000000Y-61100001D03*
X181200000Y-61100001D03*
X180000000Y-59500001D03*
X178800000Y-59500001D03*
X182400000Y-61100001D03*
X182400000Y-59500001D03*
X181200000Y-59500001D03*
X177600000Y-59500001D03*
X178800000Y-116600000D03*
X177600000Y-116600000D03*
X180000000Y-116600000D03*
X181200000Y-116600000D03*
X180000000Y-115000000D03*
X178800000Y-115000000D03*
X182400000Y-116600000D03*
X182400000Y-115000000D03*
X181200000Y-115000000D03*
X177600000Y-115000000D03*
X178800000Y-105500001D03*
X177600000Y-105500001D03*
X180000000Y-105500001D03*
X181200000Y-105500001D03*
X180000000Y-103900001D03*
X178800000Y-103900001D03*
X182400000Y-105500001D03*
X182400000Y-103900001D03*
X181200000Y-103900001D03*
X177600000Y-103900001D03*
X178800000Y-94400000D03*
X177600000Y-94400000D03*
X180000000Y-94400000D03*
X181200000Y-94400000D03*
X180000000Y-92800000D03*
X178800000Y-92800000D03*
X182400000Y-94400000D03*
X182400000Y-92800000D03*
X181200000Y-92800000D03*
X177600000Y-92800000D03*
X178800000Y-127700001D03*
X177600000Y-127700001D03*
X180000000Y-127700001D03*
X181200000Y-127700001D03*
X180000000Y-126100001D03*
X178800000Y-126100001D03*
X182400000Y-127700001D03*
X182400000Y-126100001D03*
X181200000Y-126100001D03*
X177600000Y-126100001D03*
X178800000Y-72200000D03*
X177600000Y-72200000D03*
X180000000Y-72200000D03*
X181200000Y-72200000D03*
X180000000Y-70600000D03*
X178800000Y-70600000D03*
X182400000Y-72200000D03*
X182400000Y-70600000D03*
X181200000Y-70600000D03*
X177600000Y-70600000D03*
X178800000Y-83300001D03*
X177600000Y-83300001D03*
X180000000Y-83300001D03*
X181200000Y-83300001D03*
X180000000Y-81700001D03*
X178800000Y-81700001D03*
X182400000Y-83300001D03*
X182400000Y-81700001D03*
X181200000Y-81700001D03*
X177600000Y-81700001D03*
X178800000Y-138799999D03*
X177600000Y-138799999D03*
X180000000Y-138799999D03*
X181200000Y-138799999D03*
X180000000Y-137199999D03*
X178800000Y-137199999D03*
X182400000Y-138799999D03*
X182400000Y-137199999D03*
X181200000Y-137199999D03*
X177600000Y-137199999D03*
D11*
X145800000Y-112500001D03*
D12*
X144000000Y-112500001D03*
D13*
X167787500Y-129200001D03*
X170712500Y-129200001D03*
D14*
X180000000Y-65850001D03*
D11*
X155550000Y-74700000D03*
D12*
X153750000Y-74700000D03*
D11*
X145800000Y-79200000D03*
D12*
X144000000Y-79200000D03*
D11*
X186300000Y-134700001D03*
D12*
X184500000Y-134700001D03*
D11*
X115050000Y-96900000D03*
D12*
X113250000Y-96900000D03*
D11*
X155550000Y-63600001D03*
D12*
X153750000Y-63600001D03*
D11*
X175050000Y-130200001D03*
D12*
X173250000Y-130200001D03*
D13*
X129037500Y-73700000D03*
X131962500Y-73700000D03*
D11*
X126300000Y-90300001D03*
D12*
X124500000Y-90300001D03*
D11*
X165050000Y-68100001D03*
D12*
X163250000Y-68100001D03*
D11*
X186300000Y-68100001D03*
D12*
X184500000Y-68100001D03*
D11*
X165050000Y-79200000D03*
D12*
X163250000Y-79200000D03*
D14*
X180000000Y-76950000D03*
D15*
X102500000Y-99150000D03*
D11*
X136300000Y-63600001D03*
D12*
X134500000Y-63600001D03*
D11*
X175050000Y-96900000D03*
D12*
X173250000Y-96900000D03*
D11*
X115050000Y-141299999D03*
D12*
X113250000Y-141299999D03*
D11*
X186300000Y-112500001D03*
D12*
X184500000Y-112500001D03*
D11*
X136300000Y-141299999D03*
D12*
X134500000Y-141299999D03*
D13*
X129037500Y-95900000D03*
X131962500Y-95900000D03*
D14*
X120000000Y-65850001D03*
X180000000Y-132450001D03*
D11*
X175050000Y-119100000D03*
D12*
X173250000Y-119100000D03*
D11*
X115050000Y-108000001D03*
D12*
X113250000Y-108000001D03*
D11*
X175050000Y-74700000D03*
D12*
X173250000Y-74700000D03*
D11*
X165050000Y-112500001D03*
D12*
X163250000Y-112500001D03*
D15*
X107000000Y-143549999D03*
X193000000Y-132450001D03*
D14*
X180000000Y-99150000D03*
D15*
X193000000Y-143549999D03*
X102500000Y-65850001D03*
D11*
X165050000Y-123600000D03*
D12*
X163250000Y-123600000D03*
D11*
X155550000Y-52500000D03*
D12*
X153750000Y-52500000D03*
D11*
X136300000Y-85800001D03*
D12*
X134500000Y-85800001D03*
D15*
X197500000Y-99150000D03*
X193000000Y-99150000D03*
D11*
X186300000Y-79200000D03*
D12*
X184500000Y-79200000D03*
D11*
X165050000Y-90300001D03*
D12*
X163250000Y-90300001D03*
D15*
X193000000Y-65850001D03*
D11*
X126300000Y-123600000D03*
D12*
X124500000Y-123600000D03*
D11*
X145800000Y-134700001D03*
D12*
X144000000Y-134700001D03*
D11*
X115050000Y-74700000D03*
D12*
X113250000Y-74700000D03*
D13*
X167787500Y-107000001D03*
X170712500Y-107000001D03*
D15*
X197500000Y-88050001D03*
D11*
X136300000Y-108000001D03*
D12*
X134500000Y-108000001D03*
D11*
X115050000Y-52500000D03*
D12*
X113250000Y-52500000D03*
D11*
X145800000Y-123600000D03*
D12*
X144000000Y-123600000D03*
D11*
X186300000Y-57000000D03*
D12*
X184500000Y-57000000D03*
D11*
X136300000Y-52500000D03*
D12*
X134500000Y-52500000D03*
D13*
X148287500Y-95900000D03*
X151212500Y-95900000D03*
D11*
X175050000Y-141299999D03*
D12*
X173250000Y-141299999D03*
D11*
X175050000Y-85800001D03*
D12*
X173250000Y-85800001D03*
D13*
X148287500Y-140299999D03*
X151212500Y-140299999D03*
D11*
X165050000Y-145799999D03*
D12*
X163250000Y-145799999D03*
D11*
X136300000Y-119100000D03*
D12*
X134500000Y-119100000D03*
D15*
X102500000Y-110250001D03*
D13*
X148287500Y-51500000D03*
X151212500Y-51500000D03*
D11*
X126300000Y-145799999D03*
D12*
X124500000Y-145799999D03*
D15*
X107000000Y-54750000D03*
D11*
X186300000Y-90300001D03*
D12*
X184500000Y-90300001D03*
D14*
X180000000Y-88050001D03*
D11*
X145800000Y-57000000D03*
D12*
X144000000Y-57000000D03*
D11*
X155550000Y-119100000D03*
D12*
X153750000Y-119100000D03*
D14*
X120000000Y-99150000D03*
D13*
X148287500Y-118100000D03*
X151212500Y-118100000D03*
X129037500Y-62600001D03*
X131962500Y-62600001D03*
D15*
X197500000Y-110250001D03*
D11*
X126300000Y-79200000D03*
D12*
X124500000Y-79200000D03*
D15*
X107000000Y-65850001D03*
D11*
X155550000Y-130200001D03*
D12*
X153750000Y-130200001D03*
D11*
X126300000Y-101400000D03*
D12*
X124500000Y-101400000D03*
D11*
X165050000Y-57000000D03*
D12*
X163250000Y-57000000D03*
D11*
X155550000Y-85800001D03*
D12*
X153750000Y-85800001D03*
D11*
X115050000Y-119100000D03*
D12*
X113250000Y-119100000D03*
D11*
X155550000Y-108000001D03*
D12*
X153750000Y-108000001D03*
D11*
X145800000Y-68100001D03*
D12*
X144000000Y-68100001D03*
D14*
X120000000Y-88050001D03*
D11*
X155550000Y-96900000D03*
D12*
X153750000Y-96900000D03*
D14*
X120000000Y-121350000D03*
D15*
X102500000Y-54750000D03*
D13*
X129037500Y-140299999D03*
X131962500Y-140299999D03*
D14*
X120000000Y-132450001D03*
D11*
X126300000Y-57000000D03*
D12*
X124500000Y-57000000D03*
D11*
X155550000Y-141299999D03*
D12*
X153750000Y-141299999D03*
D15*
X107000000Y-88050001D03*
X193000000Y-88050001D03*
X102500000Y-76950000D03*
D11*
X115050000Y-85800001D03*
D12*
X113250000Y-85800001D03*
D14*
X180000000Y-54750000D03*
D11*
X126300000Y-68100001D03*
D12*
X124500000Y-68100001D03*
D11*
X126300000Y-112500001D03*
D12*
X124500000Y-112500001D03*
D13*
X167787500Y-73700000D03*
X170712500Y-73700000D03*
D15*
X193000000Y-54750000D03*
D13*
X167787500Y-62600001D03*
X170712500Y-62600001D03*
D14*
X120000000Y-54750000D03*
D15*
X102500000Y-132450001D03*
D11*
X186300000Y-123600000D03*
D12*
X184500000Y-123600000D03*
D15*
X197500000Y-121350000D03*
D11*
X136300000Y-74700000D03*
D12*
X134500000Y-74700000D03*
D15*
X107000000Y-110250001D03*
D11*
X186300000Y-145799999D03*
D12*
X184500000Y-145799999D03*
D13*
X129037500Y-84800001D03*
X131962500Y-84800001D03*
D11*
X145800000Y-101400000D03*
D12*
X144000000Y-101400000D03*
D11*
X145800000Y-145799999D03*
D12*
X144000000Y-145799999D03*
D11*
X186300000Y-101400000D03*
D12*
X184500000Y-101400000D03*
D15*
X107000000Y-76950000D03*
X107000000Y-121350000D03*
D11*
X165050000Y-134700001D03*
D12*
X163250000Y-134700001D03*
D15*
X193000000Y-76950000D03*
D13*
X129037500Y-107000001D03*
X131962500Y-107000001D03*
X129037500Y-118100000D03*
X131962500Y-118100000D03*
D15*
X197500000Y-132450001D03*
D13*
X129037500Y-129200001D03*
X131962500Y-129200001D03*
D11*
X136300000Y-130200001D03*
D12*
X134500000Y-130200001D03*
D11*
X115050000Y-63600001D03*
D12*
X113250000Y-63600001D03*
D13*
X148287500Y-129200001D03*
X151212500Y-129200001D03*
D15*
X107000000Y-132450001D03*
X193000000Y-121350000D03*
X197500000Y-76950000D03*
D14*
X120000000Y-110250001D03*
D15*
X102500000Y-88050001D03*
D13*
X148287500Y-107000001D03*
X151212500Y-107000001D03*
D15*
X107000000Y-99150000D03*
D11*
X175050000Y-63600001D03*
D12*
X173250000Y-63600001D03*
D15*
X193000000Y-110250001D03*
D11*
X165050000Y-101400000D03*
D12*
X163250000Y-101400000D03*
D15*
X197500000Y-65850001D03*
D13*
X167787500Y-140299999D03*
X170712500Y-140299999D03*
D11*
X115050000Y-130200001D03*
D12*
X113250000Y-130200001D03*
D13*
X167787500Y-51500000D03*
X170712500Y-51500000D03*
D14*
X120000000Y-143549999D03*
X180000000Y-110250001D03*
D13*
X167787500Y-118100000D03*
X170712500Y-118100000D03*
D11*
X175050000Y-108000001D03*
D12*
X173250000Y-108000001D03*
D11*
X126300000Y-134700001D03*
D12*
X124500000Y-134700001D03*
D15*
X102500000Y-121350000D03*
D13*
X148287500Y-84800001D03*
X151212500Y-84800001D03*
D15*
X197500000Y-143549999D03*
D14*
X120000000Y-76950000D03*
D13*
X148287500Y-62600001D03*
X151212500Y-62600001D03*
X129037500Y-51500000D03*
X131962500Y-51500000D03*
D11*
X175050000Y-52500000D03*
D12*
X173250000Y-52500000D03*
D15*
X197500000Y-54750000D03*
D13*
X167787500Y-84800001D03*
X170712500Y-84800001D03*
D11*
X136300000Y-96900000D03*
D12*
X134500000Y-96900000D03*
D11*
X145800000Y-90300001D03*
D12*
X144000000Y-90300001D03*
D14*
X180000000Y-121350000D03*
X180000000Y-143549999D03*
D15*
X102500000Y-143549999D03*
D13*
X167787500Y-95900000D03*
X170712500Y-95900000D03*
X148287500Y-73700000D03*
X151212500Y-73700000D03*
M02*
